<svg id="Calque_1" data-name="Calque 1" xmlns="http://www.w3.org/2000/svg" viewBox="0 0 120 120"><defs><style>.cls-1{fill:#fff;}</style></defs><path class="cls-1" d="M102.75738,15.62737H87.74413a3.40911,3.40911,0,0,0-6.43078,0H38.9974a3.409,3.409,0,0,0-6.43063,0H20.33959a7.93881,7.93881,0,0,0-7.93565,7.92335v70.427a7.93881,7.93881,0,0,0,7.93565,7.92335h82.41779a7.93632,7.93632,0,0,0,7.9235-7.92335v-70.427A7.93632,7.93632,0,0,0,102.75738,15.62737Zm2.94808,78.35037a2.95427,2.95427,0,0,1-2.94808,2.94793H20.33959a2.95677,2.95677,0,0,1-2.96023-2.94793V39.02427h88.3261Z"/><rect class="cls-1" x="24.74131" y="46.38154" width="16.35536" height="15.09276"/><rect class="cls-1" x="52.05318" y="46.38154" width="16.35536" height="15.09276"/><rect class="cls-1" x="79.36504" y="46.38154" width="16.35536" height="15.09276"/><rect class="cls-1" x="24.74131" y="69.95798" width="16.35536" height="15.09276"/><rect class="cls-1" x="52.05318" y="69.95798" width="16.35536" height="15.09276"/><rect class="cls-1" x="79.36504" y="69.95798" width="16.35536" height="15.09276"/></svg>