<svg id="Calque_1" data-name="Calque 1" xmlns="http://www.w3.org/2000/svg" viewBox="0 0 120 120"><defs><style>.cls-1{fill:#19e4f9;}</style></defs><path class="cls-1" d="M92.98153,47.40567l6.98-6.98a1.46061,1.46061,0,0,0,0-2.05l-5.09009-5.09a1.46066,1.46066,0,0,0-2.04993,0l-6.98,6.98a1.48606,1.48606,0,0,0-.22009.29,42.45971,42.45971,0,0,0-23.10986-10.31,1.22856,1.22856,0,0,0,.05993-.38995v-9.88a1.44253,1.44253,0,0,0-1.45007-1.44h-7.2a1.44243,1.44243,0,0,0-1.45,1.44v9.88a1.22491,1.22491,0,0,0,.06006.38995,42.4132,42.4132,0,0,0-21.71009,9.14l-6.95007-6.95a1.46066,1.46066,0,0,0-2.04993,0l-5.09,5.09a1.46062,1.46062,0,0,0,0,2.05l6.98,6.98a.17574.17574,0,0,0,.05.04,42.60891,42.60891,0,1,0,68.41992,1.21A1.33359,1.33359,0,0,0,92.98153,47.40567Zm-35.46,57.77a32.61,32.61,0,1,1,32.60986-32.61A32.64861,32.64861,0,0,1,57.52157,105.17563Z"/><rect class="cls-1" x="52.47532" y="-7.25531" width="10.09271" height="35.06383" rx="5.04635" transform="translate(67.79828 -47.24507) rotate(90)"/><circle class="cls-1" cx="57.52444" cy="72.56197" r="4.93617"/><path class="cls-1" d="M58.89722,48.282v13a10.26828,10.26828,0,0,1,10.26,10.26,10.07614,10.07614,0,0,1-.88,4.14l12.09009,4.82a23.27018,23.27018,0,0,0-21.47009-32.22Z"/></svg>