<svg id="Calque_1" data-name="Calque 1" xmlns="http://www.w3.org/2000/svg" viewBox="0 0 120 120"><defs><style>.cls-1{fill:#fff;}.cls-2{fill:#19e4f9;}</style></defs><circle class="cls-1" cx="26.80851" cy="35.29013" r="10.21277"/><circle class="cls-2" cx="92.93617" cy="35.29013" r="10.21277"/><circle class="cls-1" cx="92.93617" cy="35.29013" r="10.21277"/><circle class="cls-1" cx="65.10806" cy="46.59834" r="11.30821"/><path class="cls-1" d="M17.39877,45.5813c-1.55019.5919-10.76853,4.71058-8.47583,18.22721a.42172.42172,0,0,0,.04952.14389c.2598.45476,1.92363,3.02356,5.281.856a.37353.37353,0,0,1,.091-.04378c.72643-.23014,9.81723-3.04116,17.11774-1.95136a.41194.41194,0,0,0,.448-.247c.71473-1.699,4.487-10.18711,9.7439-13.29352a.41313.41313,0,0,0,.16229-.56181,11.68284,11.68284,0,0,0-4.48992-4.18562.43788.43788,0,0,0-.52856.07083c-1.393,1.45047-9.148,8.6711-18.99456,1.05244A.4162.4162,0,0,0,17.39877,45.5813Z"/><path class="cls-1" d="M102.47561,45.5813c1.55019.5919,10.76853,4.71058,8.47583,18.22721a.4215.4215,0,0,1-.04952.14389c-.2598.45476-1.92363,3.02356-5.281.856a.37318.37318,0,0,0-.091-.04378c-.72643-.23014-9.81723-3.04116-17.11774-1.95136a.41193.41193,0,0,1-.448-.247c-.71474-1.699-4.487-10.18711-9.74391-13.29352a.41313.41313,0,0,1-.16229-.56181A11.6829,11.6829,0,0,1,82.548,44.52533a.43788.43788,0,0,1,.52856.07083c1.393,1.45047,9.148,8.6711,18.99456,1.05244A.41617.41617,0,0,1,102.47561,45.5813Z"/><path class="cls-1" d="M53.66709,57.35994c-1.91309,1.28279-6.93532,5.10672-8.10715,10.57548-.00824.03843-.014.07137-.0191.11036-.08545.66027-.89117,7.2619.62064,10.4452a1.04832,1.04832,0,0,0,.31678.38548c.58356.446,2.322,1.42338,4.96113-.11636a1.01676,1.01676,0,0,1,.25086-.10647,58.65249,58.65249,0,0,1,14.23281-1.90006s9.27944.10188,13.55385,2.24127c0,0,3.14988,1.72035,4.92153-.30072a1.017,1.017,0,0,0,.2229-.47547c.2707-1.36,1.39148-7.583-.055-10.83765,0,0-1.15257-5.4747-8.3072-10.08246a1.05864,1.05864,0,0,0-1.226.0611c-2.35281,1.853-11.60368,8.1467-20.01737.13072A1.07771,1.07771,0,0,0,53.66709,57.35994Z"/></svg>