<svg id="Calque_1" data-name="Calque 1" xmlns="http://www.w3.org/2000/svg" viewBox="0 0 120 120"><defs><style>.cls-1{fill:#19e4f9;}</style></defs><circle class="cls-1" cx="26.80851" cy="35.29013" r="10.21277"/><circle class="cls-1" cx="92.93617" cy="35.29013" r="10.21277"/><circle class="cls-1" cx="92.93617" cy="35.29013" r="10.21277"/><circle class="cls-1" cx="60" cy="38.2263" r="14.17021"/><path class="cls-1" d="M17.39877,45.5813c-1.55019.5919-10.76853,4.71058-8.47583,18.22721a.42172.42172,0,0,0,.04952.14389c.2598.45476,1.92363,3.02356,5.281.856a.37353.37353,0,0,1,.091-.04378c.72643-.23014,9.81723-3.04116,17.11774-1.95136a.41194.41194,0,0,0,.448-.247c.71473-1.699,4.487-10.18711,9.7439-13.29352a.41313.41313,0,0,0,.16229-.56181,11.68284,11.68284,0,0,0-4.48992-4.18562.43788.43788,0,0,0-.52856.07083c-1.393,1.45047-9.148,8.6711-18.99456,1.05244A.4162.4162,0,0,0,17.39877,45.5813Z"/><path class="cls-1" d="M102.47561,45.5813c1.55019.5919,10.76853,4.71058,8.47583,18.22721a.4215.4215,0,0,1-.04952.14389c-.2598.45476-1.92363,3.02356-5.281.856a.37318.37318,0,0,0-.091-.04378c-.72643-.23014-9.81723-3.04116-17.11774-1.95136a.41193.41193,0,0,1-.448-.247c-.71474-1.699-4.487-10.18711-9.74391-13.29352a.41313.41313,0,0,1-.16229-.56181A11.6829,11.6829,0,0,1,82.548,44.52533a.43788.43788,0,0,1,.52856.07083c1.393,1.45047,9.148,8.6711,18.99456,1.05244A.41617.41617,0,0,1,102.47561,45.5813Z"/><path class="cls-1" d="M45.66343,51.71156c-2.39727,1.60746-8.69058,6.39918-10.159,13.252-.01032.04817-.0176.08944-.02392.13829-.10709.82738-1.11673,9.09983.77771,13.08878a1.31348,1.31348,0,0,0,.397.48305c.73124.55883,2.90961,1.78362,6.21674-.14581a1.274,1.274,0,0,1,.31434-.13342,73.49671,73.49671,0,0,1,17.835-2.38094s11.628.12766,16.9842,2.80851c0,0,3.94708,2.15575,6.16712-.37683a1.27431,1.27431,0,0,0,.27931-.59581c.33922-1.70422,1.74366-9.50223-.06893-13.58055,0,0-1.44427-6.8603-10.40968-12.63424a1.32657,1.32657,0,0,0-1.53631.07657c-2.94828,2.322-14.54047,10.20854-25.08358.1638A1.35047,1.35047,0,0,0,45.66343,51.71156Z"/></svg>