<svg id="Calque_1" data-name="Calque 1" xmlns="http://www.w3.org/2000/svg" viewBox="0 0 120 120"><defs><style>.cls-1{fill:#8c29ff;}.cls-2{fill:none;stroke:#8c29ff;stroke-miterlimit:10;}</style></defs><path class="cls-1" d="M102.38319,11.2929v49.24l-32.17,31.95h-14.3l-17.62,17.62-.25-18.13-21.45.51v-63.58l18.13-17.61Zm-7.66,45.95v-39.31h-56.43v53.36l15.32-.26.77,12.26,12.13-12.26h14.68Z"/><rect class="cls-1" x="77.36319" y="30.6929" width="6.64" height="20.73"/><rect class="cls-1" x="57.44319" y="30.6929" width="6.64" height="20.73"/><polygon class="cls-2" points="16.593 28.903 34.723 11.293 102.383 11.293 102.383 60.533 70.213 92.483 55.913 92.483 38.293 110.103 38.043 91.973 16.593 92.483 16.593 28.903"/><polygon class="cls-2" points="38.293 17.933 94.723 17.933 94.723 57.243 81.193 71.033 66.513 71.033 54.383 83.293 53.613 71.033 38.293 71.293 38.293 17.933"/><rect class="cls-2" x="57.44319" y="30.6929" width="6.64" height="20.73"/><rect class="cls-2" x="77.36319" y="30.6929" width="6.64" height="20.73"/></svg>