<svg id="Calque_1" data-name="Calque 1" xmlns="http://www.w3.org/2000/svg" viewBox="0 0 120 120"><defs><style>.cls-1{fill:#8c29ff;}</style></defs><path class="cls-1" d="M73.88813,3.98562c-3.04-.77-6.20007-1.04-9.31006-1.55-.36-.05-.72-.13-1.09-.2h-6.98c-2.63.37006-5.28.64-7.88,1.14a57.57116,57.57116,0,0,0-45.51,46.58c-.36,2.1-.59,4.22-.88,6.33v7.19995c.3,2.15.48,4.32.90992,6.44,4.49011,21.88,17.07007,37.14,38.19006,44.38a60.05576,60.05576,0,0,0,19.53,3.42c13.18,0,25.52991-4.9,36.77-14.37a54.58547,54.58547,0,0,0,19.43994-36.68005,61.02709,61.02709,0,0,0,.39-6.85A57.28173,57.28173,0,0,0,73.88813,3.98562Zm.59,50.69q-.42,3.75-.89,7.48c-.15,1.18-.65,1.62-1.88,1.63-2.62.02-5.24,0-8.01,0v23.13c-.01,1.54-.27,1.79-1.86,1.8h-6.87c-1.72,0-1.89-.17005-1.89-1.85q.015-10.86.04-21.73v-1.35c-1.94006,0-3.77.00995-5.6,0-1.85009,0-2.25-.4-2.26-2.23V54.91568c.01-1.72.47-2.17005,2.23-2.18006h5.59c0-1.94-.04993-3.73.01-5.51995a39.63628,39.63628,0,0,1,.44006-6.27c1.2-5.99,5.59-9.61,11.73-9.85,2.39991-.09,4.8-.04,7.2-.03a1.534,1.534,0,0,1,1.74,1.74c.04,2.1.04,4.21,0,6.31-.02,1.2-.54,1.68-1.75,1.72-1.68995.06-3.37989.01-5.05994.15a3.5789,3.5789,0,0,0-3.61,3.62006c-.14,2.63995-.03,5.31-.03,8.1h3.48c1.84009,0,3.67994-.02,5.52.01A1.58169,1.58169,0,0,1,74.47809,54.67563Z"/></svg>