<?xml version="1.0" standalone="no"?>
<!DOCTYPE svg PUBLIC "-//W3C//DTD SVG 20010904//EN"
 "http://www.w3.org/TR/2001/REC-SVG-20010904/DTD/svg10.dtd">
<svg version="1.0" xmlns="http://www.w3.org/2000/svg"
 width="301.000000pt" height="301.000000pt" viewBox="0 0 301.000000 301.000000"
 preserveAspectRatio="xMidYMid meet">
<metadata>
Created by potrace 1.14, written by Peter Selinger 2001-2017
</metadata>
<g transform="translate(0.000000,301.000000) scale(0.100000,-0.100000)"
fill="#000000" stroke="none">
<path d="M1400 2647 c-71 -33 -541 -248 -842 -385 -43 -19 -78 -38 -78 -42 0
-5 22 -22 49 -40 l50 -31 -2 -202 -2 -201 -105 -47 -105 -46 0 -344 0 -344 23
-1 23 -1 -3 325 c-3 280 -1 326 12 333 17 10 149 69 153 69 2 0 1 -162 -1
-360 -3 -293 -1 -360 10 -361 7 -1 421 -2 921 -3 l907 -1 -2 360 c-1 306 1
360 13 357 8 -2 37 -13 64 -26 28 -13 59 -26 71 -30 20 -6 20 -9 16 -334 l-4
-328 26 0 26 0 -2 345 -3 344 -104 46 -105 46 -1 202 -2 202 55 36 54 37 -428
194 c-236 107 -467 212 -514 233 l-85 38 -85 -40z m313 -166 c48 -23 87 -42
87 -44 0 -1 -61 -3 -135 -4 l-135 -2 0 70 0 69 48 -24 c26 -13 86 -42 135 -65z
m-268 23 c1 -27 0 -54 -2 -60 -2 -7 -51 -11 -134 -11 -71 0 -128 1 -127 3 12
11 245 123 253 120 5 -1 10 -25 10 -52z m619 -193 c59 -29 105 -55 101 -59 -4
-4 -310 -7 -680 -7 -572 0 -672 2 -661 14 8 7 57 34 109 60 l95 46 464 -1 463
0 109 -53z m-1159 -322 l0 -164 -85 -1 c-47 -1 -88 3 -91 8 -6 10 -2 223 7
285 l5 42 57 3 c31 2 68 0 82 -3 l25 -5 0 -165z m195 74 l-1 -108 -37 -42
c-20 -23 -45 -54 -55 -68 -10 -14 -22 -23 -27 -20 -5 3 -9 79 -9 170 l1 164
61 4 c34 2 63 4 65 5 1 1 2 -46 2 -105z m199 54 c0 -42 -1 -42 -65 -73 l-64
-31 -1 31 c-1 42 2 110 6 116 2 3 30 3 64 2 l61 -4 -1 -41z m459 -18 c-1 -50
-4 -59 -17 -53 -9 4 -45 17 -81 29 -59 20 -65 25 -68 53 -3 28 0 31 30 34 18
2 56 1 85 0 l52 -4 -1 -59z m243 18 c1 -57 1 -148 0 -229 -1 -82 -14 -87 -60
-24 -17 25 -50 63 -73 85 l-41 41 -2 84 -2 85 36 3 c20 2 60 1 89 0 l52 -4 1
-41z m-477 14 c0 -23 -3 -24 -77 -27 l-77 -4 0 31 0 30 77 -3 c74 -3 77 -4 77
-27z m721 -3 c8 -49 13 -285 6 -296 -3 -5 -45 -10 -93 -10 l-88 -1 0 169 0
170 85 0 84 0 6 -32z m-602 -106 c350 -125 451 -564 190 -825 -300 -300 -816
-107 -848 316 -18 233 139 452 370 518 80 23 210 19 288 -9z"/>
<path d="M1369 1978 c-82 -20 -109 -34 -109 -53 0 -20 9 -19 83 6 82 28 175
28 246 0 84 -34 115 -11 37 26 -81 40 -160 46 -257 21z"/>
<path d="M1358 1890 c-97 -30 -204 -108 -181 -131 8 -8 25 0 60 25 162 116
307 116 451 -2 35 -28 46 -32 53 -21 13 20 -60 85 -131 117 -72 32 -172 37
-252 12z"/>
<path d="M1393 1819 c-125 -24 -204 -106 -236 -248 -13 -55 -13 -63 0 -68 17
-7 33 13 33 43 0 73 70 178 144 216 61 32 204 32 263 1 43 -23 86 -71 97 -109
7 -23 60 -80 88 -95 14 -8 20 -6 25 7 4 11 -4 24 -26 41 -17 14 -43 47 -56 74
-31 60 -67 95 -125 121 -49 23 -139 30 -207 17z"/>
<path d="M1423 1759 c-90 -12 -161 -72 -188 -161 -13 -45 -13 -92 0 -171 8
-54 -8 -90 -51 -109 -27 -12 -33 -38 -9 -38 59 0 107 66 97 134 -13 94 -7 170
16 211 39 69 118 109 196 100 68 -9 115 -43 155 -115 51 -90 171 -186 171
-136 0 7 -17 26 -37 42 -46 34 -93 85 -93 100 0 6 -13 29 -29 51 -53 73 -131
105 -228 92z"/>
<path d="M1745 1740 c-9 -14 43 -102 56 -95 15 10 11 35 -12 71 -21 35 -33 41
-44 24z"/>
<path d="M1428 1680 c-104 -30 -143 -107 -113 -221 15 -55 11 -129 -9 -168 -9
-16 -31 -36 -51 -45 -40 -19 -42 -43 -4 -38 89 10 135 137 99 272 -23 86 16
151 99 165 60 10 109 -24 145 -102 10 -21 46 -61 79 -89 84 -70 104 -81 117
-68 8 8 -11 30 -69 78 -56 46 -89 82 -105 115 -27 51 -77 101 -104 102 -9 0
-26 2 -37 4 -11 1 -32 -1 -47 -5z"/>
<path d="M1430 1609 c-32 -11 -60 -57 -60 -96 0 -62 121 -215 243 -307 30 -23
40 -26 50 -17 9 10 5 18 -18 38 -66 56 -172 162 -198 200 -42 60 -49 97 -27
126 17 21 35 26 71 18 3 0 20 -27 37 -58 28 -52 53 -78 175 -185 18 -16 38
-28 45 -28 29 0 6 33 -78 109 -60 55 -96 97 -109 126 -12 27 -33 53 -53 65
-36 22 -42 23 -78 9z"/>
<path d="M1447 1527 c-6 -19 11 -56 45 -100 41 -52 206 -189 219 -182 21 14 5
35 -72 96 -82 64 -128 114 -150 162 -13 29 -36 42 -42 24z"/>
<path d="M1150 1437 c0 -41 33 -88 50 -71 7 7 6 21 -5 47 -8 20 -15 40 -15 44
1 5 -6 9 -14 11 -12 3 -16 -5 -16 -31z"/>
<path d="M1387 1343 c-2 -5 -3 -24 -2 -43 3 -49 -22 -106 -56 -131 -31 -22
-30 -39 1 -39 39 0 90 84 92 155 1 44 -4 65 -16 65 -8 0 -17 -3 -19 -7z"/>
<path d="M1462 1237 c-36 -16 -74 -147 -42 -147 6 0 13 8 17 18 3 9 14 36 23
59 22 50 44 49 78 -3 24 -37 52 -45 52 -15 0 21 -72 98 -92 98 -8 0 -24 -5
-36 -10z"/>
<path d="M493 1613 l-43 -24 0 -313 0 -313 38 0 c20 0 40 4 43 9 3 5 7 109 8
231 2 122 4 268 5 325 1 57 -1 105 -4 106 -3 2 -24 -8 -47 -21z"/>
<path d="M2439 1608 c-1 -48 7 -576 10 -631 1 -15 8 -18 43 -15 l42 3 -1 288
c-1 158 -2 298 -2 311 -1 17 -12 30 -41 45 -50 26 -50 26 -51 -1z"/>
<path d="M1004 710 c-26 -10 -74 -66 -75 -88 -2 -26 -2 -75 0 -97 2 -30 52
-83 85 -91 26 -6 27 -5 17 14 -15 29 -14 225 1 240 17 17 -2 32 -28 22z"/>
<path d="M1054 709 c-3 -6 -4 -11 -3 -12 37 -19 46 -28 59 -55 23 -48 40 -41
40 17 0 47 -12 72 -24 52 -4 -6 -18 -6 -36 -1 -18 5 -32 5 -36 -1z"/>
<path d="M1905 712 c-102 -21 -115 -223 -19 -270 37 -17 51 -12 39 15 -14 32
-13 206 2 230 14 24 8 32 -22 25z"/>
<path d="M1950 705 c0 -8 9 -16 19 -20 11 -3 27 -22 36 -41 19 -40 39 -41 38
-1 -1 15 -1 39 -2 54 -1 19 -4 24 -12 16 -6 -6 -23 -8 -45 -3 -25 6 -34 5 -34
-5z"/>
<path d="M100 701 c0 -6 5 -13 10 -16 14 -9 13 -225 -1 -225 -6 0 -9 -6 -7
-12 3 -9 25 -13 62 -13 60 0 75 7 57 29 -12 15 -12 214 1 222 23 15 1 24 -57
24 -36 0 -65 -4 -65 -9z"/>
<path d="M240 701 c0 -6 5 -13 10 -16 6 -3 10 -26 10 -51 0 -37 -3 -44 -20
-44 -13 0 -18 -5 -14 -15 3 -8 11 -13 17 -12 16 3 21 -81 7 -98 -19 -23 -4
-32 54 -30 53 1 84 13 59 22 -16 6 -18 219 -3 228 25 16 5 25 -55 25 -36 0
-65 -4 -65 -9z"/>
<path d="M480 699 c0 -5 7 -42 16 -80 17 -75 14 -102 -11 -93 -10 4 -15 0 -15
-10 0 -10 9 -16 24 -16 28 0 42 -26 25 -46 -6 -8 -10 -14 -8 -15 2 0 30 -2 62
-3 59 -3 76 5 59 27 -5 7 -21 65 -37 130 l-27 117 -44 0 c-24 0 -44 -5 -44
-11z"/>
<path d="M660 704 c0 -3 11 -20 23 -37 13 -18 50 -77 81 -132 52 -90 61 -100
87 -100 28 -1 29 1 29 44 0 35 -11 64 -52 138 l-53 93 -57 0 c-32 0 -58 -3
-58 -6z"/>
<path d="M830 696 c0 -8 4 -16 10 -18 5 -1 12 -25 14 -52 7 -73 26 -83 26 -14
0 37 5 60 15 68 25 21 17 30 -25 30 -28 0 -40 -4 -40 -14z"/>
<path d="M1260 698 c0 -7 7 -46 17 -86 14 -62 15 -75 3 -82 -8 -5 -18 -6 -22
-4 -4 3 -8 -2 -8 -10 0 -11 9 -16 30 -16 23 0 30 -5 30 -19 0 -11 -6 -21 -12
-24 -26 -9 4 -21 57 -22 60 -2 71 4 56 32 -6 10 -19 59 -31 108 -33 146 -27
135 -76 135 -28 0 -44 -4 -44 -12z"/>
<path d="M1440 701 c0 -6 4 -12 9 -15 12 -7 11 -208 -1 -223 -17 -21 -1 -29
54 -27 86 3 83 2 65 22 -14 15 -17 41 -17 135 l0 117 -55 0 c-30 0 -55 -4 -55
-9z"/>
<path d="M1560 696 c0 -8 6 -16 13 -19 17 -7 16 -86 -3 -97 -11 -7 -11 -11 -2
-23 7 -8 15 -34 17 -57 2 -23 10 -48 16 -56 24 -30 99 -9 99 27 0 11 -4 17
-10 14 -5 -3 -10 -3 -11 2 -3 38 -12 60 -29 72 -19 13 -19 13 1 30 52 43 17
121 -56 121 -23 0 -35 -5 -35 -14z"/>
<path d="M2156 702 c-3 -5 1 -33 8 -63 28 -111 28 -107 4 -111 -12 -2 -23 -9
-26 -16 -2 -7 2 -13 9 -11 42 5 50 -1 47 -33 l-3 -31 58 -2 c55 -2 82 9 59 24
-6 4 -24 60 -39 126 l-28 120 -42 3 c-23 2 -44 -1 -47 -6z"/>
<path d="M2330 701 c0 -6 8 -14 18 -20 15 -8 17 -22 14 -103 -2 -59 -8 -101
-17 -115 -19 -29 -15 -30 59 -24 19 1 19 1 0 22 -10 12 -20 37 -20 58 -1 20
-5 48 -9 64 -15 59 4 22 31 -58 15 -47 33 -85 39 -85 12 0 49 127 51 180 2 33
2 34 -9 11 -11 -22 -12 -21 -27 25 l-17 49 -56 3 c-33 2 -57 -1 -57 -7z"/>
<path d="M2510 585 c0 -83 -4 -125 -11 -125 -6 0 -9 -5 -7 -12 5 -14 116 -19
125 -5 3 5 1 12 -4 16 -11 7 -12 216 0 227 17 17 4 24 -48 24 l-55 0 0 -125z"/>
<path d="M2655 700 c-3 -5 -1 -10 4 -10 15 0 15 -226 0 -236 -19 -12 8 -21 59
-19 l47 1 0 137 1 137 -52 0 c-29 0 -56 -4 -59 -10z"/>
<path d="M2780 696 c0 -9 7 -16 15 -16 8 0 22 -11 31 -25 22 -34 38 -27 38 16
0 33 -2 34 -42 37 -33 2 -42 0 -42 -12z"/>
<path d="M2122 573 c-13 -51 -32 -97 -44 -110 -12 -13 -17 -23 -12 -24 33 -4
70 -5 77 -1 4 2 1 12 -7 23 -12 17 -12 28 0 72 21 78 24 101 16 114 -5 8 -17
-22 -30 -74z"/>
<path d="M468 640 c-4 -8 -16 -49 -28 -90 -12 -41 -28 -80 -37 -87 -8 -6 -13
-16 -10 -20 8 -13 70 -9 75 5 2 7 -1 12 -7 12 -15 0 -14 33 5 89 14 45 16 127
2 91z"/>
<path d="M1231 584 c-11 -39 -21 -76 -21 -83 0 -6 -9 -20 -20 -31 -27 -27 -19
-37 25 -35 41 2 55 12 31 21 -21 8 -20 25 2 99 11 34 16 69 12 80 -6 15 -13 3
-29 -51z"/>
<path d="M685 549 c-1 -58 -5 -83 -15 -89 -20 -12 -5 -25 31 -26 33 -1 49 14
28 27 -9 5 -16 35 -19 85 -7 105 -25 107 -25 3z"/>
<path d="M2795 603 c-16 -24 -16 -29 -2 -52 26 -44 37 -37 37 23 0 62 -9 69
-35 29z"/>
<path d="M1045 571 c-3 -2 2 -12 11 -22 15 -17 15 -41 -2 -96 -5 -18 -2 -23
10 -23 22 0 76 28 77 40 1 6 2 22 3 38 1 15 5 33 10 40 4 7 5 16 1 20 -8 8
-103 11 -110 3z"/>
<path d="M1943 567 c-3 -6 -1 -13 5 -15 15 -5 16 -92 2 -92 -5 0 -10 -7 -10
-15 0 -18 4 -18 52 -4 40 10 41 14 52 94 l5 40 -49 2 c-28 1 -53 -4 -57 -10z"/>
<path d="M2830 495 c-7 -13 -22 -27 -32 -31 -28 -8 -16 -28 18 -30 44 -2 50 3
50 46 0 46 -16 52 -36 15z"/>
</g>
</svg>
